<svg version="1.2" xmlns="http://www.w3.org/2000/svg" viewBox="0 0 256 290" width="256" height="290">
	<title>c-svg</title>
	<style>
		.s0 { fill: #ffffff } 
		.s1 { fill: #000000 } 
	</style>
	<path id="Layer" class="s0" d="m255.6 85.7q0-7.2-3.2-12.7-3-5.5-9.2-9c-34-19.7-68.1-39.2-102.1-58.9-9.2-5.3-18.1-5.1-27.2 0.3-13.5 8-81.3 46.8-101.5 58.5-8.3 4.9-12.4 12.2-12.4 21.8q0 59.2 0 118.4 0 7.1 3 12.5c2 3.7 5.2 6.8 9.4 9.2 20.2 11.7 88 50.6 101.5 58.6 9.1 5.4 18 5.5 27.2 0.3 34-19.7 68.1-39.2 102.1-58.9 4.2-2.4 7.3-5.5 9.4-9.2q3-5.4 3-12.5c0 0 0-78.9 0-118.4z"/>
	<path id="Layer" class="s0" d="m128.2 144.5l-125.2 72.1c2 3.7 5.2 6.8 9.4 9.2 20.2 11.7 88 50.6 101.5 58.6 9.1 5.4 18 5.5 27.2 0.3 34-19.7 68.1-39.2 102.1-58.9 4.2-2.4 7.3-5.5 9.4-9.2z"/>
	<path id="Layer" class="s0" d="m91.1 165.9c7.3 12.7 21 21.3 36.7 21.3 15.8 0 29.6-8.7 36.8-21.6l-36.4-21.1z"/>
	<path id="Layer" class="s0" d="m255.6 85.7q0-7.2-3.2-12.7l-124.2 71.5 124.4 72.1q3-5.4 3-12.5c0 0 0-78.9 0-118.4z"/>
	<path id="Shape 1" class="s0" d="m158 103h100v100h-100z"/>
	<path id="Layer" class="s1" d="m248.7 149.7h-9.7v9.7h-9.7v-9.7h-9.7v-9.8h9.7v-9.7h9.7v9.7h9.7zm-35.4 0h-9.8v9.8h-9.7v-9.8h-9.7v-9.7h9.7v-9.7h9.7v9.7h9.8z"/>
	<path id="Layer" class="s1" d="m164.6 165.6c-7.2 12.9-21 21.6-36.8 21.6-15.7 0-29.4-8.6-36.7-21.3q-1.4-2.4-2.4-5-1.1-2.5-1.8-5.2-0.7-2.6-1-5.3-0.4-2.8-0.4-5.5c0-23.3 19-42.3 42.3-42.3 15.6 0 29.2 8.5 36.5 21.1l37-21.3c-14.7-25.3-42.1-42.4-73.5-42.4-46.9 0-84.9 38-84.9 84.9 0 15.4 4.1 29.8 11.3 42.2 14.6 25.5 42.1 42.7 73.6 42.7 31.5 0 59.1-17.3 73.7-42.8z"/>
</svg>